<mxfile host="app.diagrams.net" modified="2023-10-13T05:39:02.395Z" agent="Mozilla/5.0 (Windows NT 10.0; Win64; x64) AppleWebKit/537.36 (KHTML, like Gecko) Chrome/117.0.0.0 Safari/537.36" etag="wl8NoMicnmTQodOb5-Am" version="22.0.4" type="github">
  <diagram name="第 1 页" id="oPLylKOjus3FNR78ZNIK">
    <mxGraphModel dx="1326" dy="896" grid="1" gridSize="10" guides="1" tooltips="1" connect="1" arrows="1" fold="1" page="1" pageScale="1" pageWidth="827" pageHeight="1169" math="0" shadow="0">
      <root>
        <mxCell id="0" />
        <mxCell id="1" parent="0" />
        <mxCell id="SZHv0-pAQ8VvcWrhZLWG-1" value="" style="rounded=0;whiteSpace=wrap;html=1;" parent="1" vertex="1">
          <mxGeometry x="219" y="260" width="497" height="210" as="geometry" />
        </mxCell>
        <mxCell id="SZHv0-pAQ8VvcWrhZLWG-2" value="您的输出目录不存在，请重新选择或者手动补全目录！" style="text;html=1;strokeColor=none;fillColor=none;align=left;verticalAlign=middle;whiteSpace=wrap;rounded=0;fontStyle=1" parent="1" vertex="1">
          <mxGeometry x="274" y="288" width="400" height="30" as="geometry" />
        </mxCell>
        <mxCell id="SZHv0-pAQ8VvcWrhZLWG-4" value="重选" style="rounded=1;whiteSpace=wrap;html=1;" parent="1" vertex="1">
          <mxGeometry x="580" y="337.5" width="50" height="20" as="geometry" />
        </mxCell>
        <mxCell id="SZHv0-pAQ8VvcWrhZLWG-5" value="取消" style="rounded=1;whiteSpace=wrap;html=1;" parent="1" vertex="1">
          <mxGeometry x="600" y="410" width="90" height="30" as="geometry" />
        </mxCell>
        <mxCell id="SZHv0-pAQ8VvcWrhZLWG-6" value="确认" style="rounded=1;whiteSpace=wrap;html=1;" parent="1" vertex="1">
          <mxGeometry x="480" y="410" width="90" height="30" as="geometry" />
        </mxCell>
        <mxCell id="SZHv0-pAQ8VvcWrhZLWG-14" value="" style="shape=mxgraph.azure.azure_alert;fillColor=#FFAB00;strokeColor=none;fontColor=#172B4C;fontSize=18;fontStyle=1;labelPosition=right;verticalLabelPosition=middle;align=left;verticalAlign=middle;html=1;spacingLeft=5;sketch=0;hachureGap=4;pointerEvents=0;fontFamily=Architects Daughter;fontSource=https%3A%2F%2Ffonts.googleapis.com%2Fcss%3Ffamily%3DArchitects%2BDaughter;" parent="1" vertex="1">
          <mxGeometry x="249" y="290" width="20" height="20" as="geometry" />
        </mxCell>
        <mxCell id="friTCGSXGGDL9lhC7VDr-1" value="打开" style="rounded=1;whiteSpace=wrap;html=1;" vertex="1" parent="1">
          <mxGeometry x="644" y="337.5" width="50" height="20" as="geometry" />
        </mxCell>
        <mxCell id="friTCGSXGGDL9lhC7VDr-5" value="" style="group" vertex="1" connectable="0" parent="1">
          <mxGeometry x="253" y="332.5" width="321" height="30" as="geometry" />
        </mxCell>
        <mxCell id="friTCGSXGGDL9lhC7VDr-2" value="&lt;div&gt;&lt;br&gt;&lt;/div&gt;" style="rounded=1;whiteSpace=wrap;html=1;align=left;fontStyle=0" vertex="1" parent="friTCGSXGGDL9lhC7VDr-5">
          <mxGeometry y="2.5" width="321" height="25" as="geometry" />
        </mxCell>
        <mxCell id="friTCGSXGGDL9lhC7VDr-4" value="C:\Users\cooldanny\Videos\&lt;font color=&quot;#ea6b66&quot;&gt;VideoProc Converter AI&lt;/font&gt;" style="text;html=1;strokeColor=none;fillColor=none;align=left;verticalAlign=middle;whiteSpace=wrap;rounded=0;" vertex="1" parent="friTCGSXGGDL9lhC7VDr-5">
          <mxGeometry x="8.254285714285714" width="284.3142857142857" height="30" as="geometry" />
        </mxCell>
      </root>
    </mxGraphModel>
  </diagram>
</mxfile>
